<svg width="1392" height="207" viewBox="0 0 1392 207" fill="none" xmlns="http://www.w3.org/2000/svg">
<g clip-path="url(#clip0_107_916)">
<path d="M0 165.555L96.5739 0H124.166L220.74 165.555H196.597L175.902 127.616H44.8379L24.1435 165.555H0ZM55.1851 110.37H165.555L110.37 13.7963L55.1851 110.37Z" fill="#C8FFAE"></path>
<path d="M522.287 128.683C522.287 137.963 520.891 145.244 518.127 150.555C515.362 155.865 511.146 159.752 505.453 162.188C499.786 164.625 492.532 166.185 483.745 166.869C474.931 167.554 464.475 167.882 452.321 167.882C438.442 167.882 426.699 167.17 417.009 165.774C407.346 164.378 399.544 161.504 393.632 157.152C387.692 152.799 383.394 146.284 380.711 137.58C378.029 128.875 376.66 117.268 376.66 102.76C376.66 88.2524 377.974 77.3851 380.602 68.9267C383.23 60.4409 387.473 54.0628 393.385 49.7378C399.271 45.4128 407.017 42.5659 416.626 41.1152C426.206 39.6917 437.95 38.9526 451.828 38.9526C467.705 38.9526 480.844 40.075 491.273 42.2922C501.703 44.5095 509.477 48.7524 514.595 55.0209C519.742 61.2621 522.287 70.4322 522.287 82.504V109.138H397.464C397.546 118.336 398.176 125.699 399.408 131.229C400.639 136.758 403.076 140.919 406.744 143.739C410.412 146.531 415.886 148.392 423.168 149.295C430.449 150.199 440.167 150.637 452.321 150.637C463.243 150.637 472.057 150.418 478.791 149.98C485.497 149.542 490.616 148.611 494.093 147.133C497.569 145.655 499.923 143.465 501.155 140.509C502.387 137.552 502.989 133.61 502.989 128.656H522.287V128.683ZM451.801 56.2527C440.085 56.2527 430.668 56.6907 423.496 57.5393C416.352 58.3879 410.904 60.0577 407.154 62.5486C403.404 65.0396 400.886 68.7077 399.544 73.6076C398.203 78.5074 397.519 84.9128 397.437 92.9059H502.414V82.5587C502.414 77.3851 501.812 73.0875 500.635 69.6658C499.458 66.2441 497.131 63.5615 493.682 61.5906C490.233 59.6197 485.142 58.2236 478.435 57.4298C471.701 56.636 462.832 56.2527 451.746 56.2527H451.801Z" fill="#C8FFAE"></path>
<path d="M551.168 165.555V41.3887H571.862V58.5246C574.162 54.8565 576.488 51.818 578.815 49.3544C581.142 46.8908 584.208 44.9747 587.985 43.5239C591.763 42.1004 596.882 41.0602 603.342 40.458C609.802 39.8558 618.315 39.5547 628.881 39.5547V56.9095C614.647 56.9095 603.643 57.4022 595.842 58.4151C588.04 59.4279 582.456 61.125 579.089 63.5339C575.722 65.9428 573.669 69.255 572.957 73.4979C572.246 77.7408 571.89 83.1334 571.89 89.6757V165.555H551.195H551.168Z" fill="#C8FFAE"></path>
<path d="M674.703 206.944V189.699C682.093 189.699 688.225 189.535 693.07 189.206C697.915 188.878 701.967 187.974 705.252 186.524C708.536 185.073 711.465 182.664 714.093 179.352C716.721 176.039 719.458 171.441 722.333 165.555H715.434L646.453 41.3889H670.159L729.231 150.144L778.914 41.3889H803.167L740.208 172.454C737.415 178.284 734.514 183.348 731.53 187.646C728.546 191.971 724.824 195.557 720.334 198.431C715.845 201.305 709.96 203.44 702.706 204.836C695.452 206.232 686.117 206.944 674.675 206.944H674.703Z" fill="#C8FFAE"></path>
<path d="M893.938 165.555V0H914.632V72.4304H942.115L1049.15 0H1080.19L962.919 81.0531L1083.64 165.555H1052.59L942.224 89.6758H914.632V165.555H893.938Z" fill="#C8FFAE"></path>
<path d="M1104.33 20.6944V0H1125.03V20.6944H1104.33ZM1104.33 165.555V48.287H1125.03V165.555H1104.33Z" fill="#C8FFAE"></path>
<path d="M1153.05 165.555V41.3888H1173.75V56.8001C1176.84 52.6393 1180.54 49.1355 1184.86 46.3434C1189.19 43.5513 1194.69 41.4435 1201.4 40.0475C1208.1 38.6514 1216.73 37.9397 1227.21 37.9397C1240.21 37.9397 1250.81 39.6916 1259.02 43.2228C1267.2 46.754 1273.25 52.8036 1277.14 61.4262C1280.67 55.9789 1284.89 51.4896 1289.87 48.0132C1294.85 44.5368 1301.06 41.9636 1308.56 40.3486C1316.06 38.7336 1325.32 37.9124 1336.32 37.9124C1349.41 37.9124 1360.03 39.6916 1368.24 43.2502C1376.42 46.8088 1382.45 52.8583 1386.3 61.3989C1390.14 69.9394 1392.08 81.6553 1392.08 96.5465V165.528H1371.39V96.5465C1371.39 85.1865 1370.21 76.5638 1367.83 70.6237C1365.45 64.6837 1361.53 60.6324 1356.03 58.4425C1350.53 56.2526 1343.11 55.1577 1333.77 55.1577C1315.46 55.1577 1302.4 57.8403 1294.6 63.2329C1286.8 68.6255 1282.91 77.4124 1282.91 89.6484V89.5389C1283 91.7561 1283.02 94.1103 1283.02 96.5465V165.528H1262.33V96.5465C1262.33 85.1865 1261.15 76.5638 1258.77 70.6237C1256.39 64.6837 1252.48 60.6324 1246.97 58.4425C1241.47 56.2526 1234.05 55.1577 1224.72 55.1577C1206.41 55.1577 1193.35 57.8403 1185.55 63.2329C1177.75 68.6255 1173.86 77.4124 1173.86 89.6484V165.528H1153.16L1153.05 165.555Z" fill="#C8FFAE"></path>
<path d="M283.18 151.759L220.111 41.3889H196.953L269.384 165.555H296.976L369.407 41.3889H346.248L283.18 151.759Z" fill="#C8FFAE"></path>
</g>
<defs>
<clipPath id="clip0_107_916">
<rect width="1392" height="206.944" fill="white"></rect>
</clipPath>
</defs>
</svg>