<svg width="1440" height="484" viewBox="0 0 1440 484" fill="none" xmlns="http://www.w3.org/2000/svg">
<rect width="1440" height="2" fill="#1D030E"></rect>
<rect y="6" width="1440" height="2" fill="#1D030E"></rect>
<rect y="16" width="1440" height="4" fill="#1D030E"></rect>
<rect y="28" width="1440" height="6" fill="#1D030E"></rect>
<rect y="42" width="1440" height="8" fill="#1D030E"></rect>
<rect y="66" width="1440" height="10" fill="#1D030E"></rect>
<rect y="84" width="1440" height="12" fill="#1D030E"></rect>
<rect y="104" width="1440" height="14" fill="#1D030E"></rect>
<rect y="126" width="1440" height="16" fill="#1D030E"></rect>
<rect width="1440" height="318" transform="translate(0 166)" fill="#1D030E"></rect>
<path d="M20.8 462.712C20.128 462.712 19.4987 462.589 18.912 462.344C18.336 462.099 17.8293 461.747 17.392 461.288C16.9653 460.829 16.624 460.275 16.368 459.624C16.1227 458.973 16 458.237 16 457.416C16 456.605 16.1227 455.875 16.368 455.224C16.624 454.563 16.9653 454.003 17.392 453.544C17.8293 453.085 18.336 452.733 18.912 452.488C19.4987 452.243 20.128 452.12 20.8 452.12C21.472 452.12 22.096 452.243 22.672 452.488C23.2587 452.733 23.7653 453.085 24.192 453.544C24.6293 454.003 24.9707 454.563 25.216 455.224C25.472 455.875 25.6 456.605 25.6 457.416C25.6 458.237 25.472 458.973 25.216 459.624C24.9707 460.275 24.6293 460.829 24.192 461.288C23.7653 461.747 23.2587 462.099 22.672 462.344C22.096 462.589 21.472 462.712 20.8 462.712ZM20.8 461.832C21.344 461.832 21.8453 461.731 22.304 461.528C22.7733 461.325 23.1733 461.048 23.504 460.696C23.8453 460.333 24.112 459.912 24.304 459.432C24.496 458.952 24.592 458.44 24.592 457.896V456.936C24.592 456.392 24.496 455.88 24.304 455.4C24.112 454.92 23.8453 454.504 23.504 454.152C23.1733 453.789 22.7733 453.507 22.304 453.304C21.8453 453.101 21.344 453 20.8 453C20.256 453 19.7493 453.101 19.28 453.304C18.8213 453.507 18.4213 453.789 18.08 454.152C17.7493 454.504 17.488 454.92 17.296 455.4C17.104 455.88 17.008 456.392 17.008 456.936V457.896C17.008 458.44 17.104 458.952 17.296 459.432C17.488 459.912 17.7493 460.333 18.08 460.696C18.4213 461.048 18.8213 461.325 19.28 461.528C19.7493 461.731 20.256 461.832 20.8 461.832ZM20.928 460.472C20.064 460.472 19.3813 460.195 18.88 459.64C18.3787 459.085 18.128 458.344 18.128 457.416C18.128 456.957 18.192 456.541 18.32 456.168C18.4587 455.784 18.6507 455.459 18.896 455.192C19.152 454.925 19.4507 454.723 19.792 454.584C20.1333 454.435 20.512 454.36 20.928 454.36C21.536 454.36 22.0267 454.504 22.4 454.792C22.784 455.08 23.0667 455.448 23.248 455.896L22.048 456.52C21.9307 456.264 21.7867 456.061 21.616 455.912C21.4453 455.763 21.2213 455.688 20.944 455.688C20.6027 455.688 20.3307 455.8 20.128 456.024C19.936 456.237 19.84 456.52 19.84 456.872V457.96C19.84 458.312 19.936 458.6 20.128 458.824C20.32 459.037 20.5973 459.144 20.96 459.144C21.2693 459.144 21.5147 459.069 21.696 458.92C21.8773 458.76 22.032 458.557 22.16 458.312L23.344 458.936C23.1627 459.352 22.88 459.715 22.496 460.024C22.112 460.323 21.5893 460.472 20.928 460.472ZM42.7075 463H34.8355V461.048L38.4195 457.992C39.0168 457.48 39.4595 457.016 39.7475 456.6C40.0355 456.173 40.1795 455.72 40.1795 455.24V455.08C40.1795 454.547 40.0302 454.141 39.7315 453.864C39.4328 453.587 39.0168 453.448 38.4835 453.448C37.8968 453.448 37.4488 453.608 37.1395 453.928C36.8302 454.248 36.6062 454.643 36.4675 455.112L34.6435 454.424C34.7608 454.061 34.9262 453.715 35.1395 453.384C35.3635 453.043 35.6355 452.744 35.9555 452.488C36.2862 452.232 36.6755 452.029 37.1235 451.88C37.5715 451.72 38.0835 451.64 38.6595 451.64C39.2568 451.64 39.7848 451.725 40.2435 451.896C40.7128 452.056 41.1075 452.285 41.4275 452.584C41.7475 452.872 41.9875 453.219 42.1475 453.624C42.3182 454.029 42.4035 454.472 42.4035 454.952C42.4035 455.411 42.3288 455.832 42.1795 456.216C42.0408 456.6 41.8435 456.968 41.5875 457.32C41.3315 457.661 41.0275 457.992 40.6755 458.312C40.3342 458.632 39.9608 458.952 39.5555 459.272L37.1235 461.24H42.7075V463ZM47.6613 463.192C46.9359 463.192 46.3066 463.064 45.7733 462.808C45.2399 462.541 44.7972 462.163 44.4453 461.672C44.1039 461.181 43.8479 460.579 43.6772 459.864C43.5172 459.149 43.4372 458.333 43.4372 457.416C43.4372 456.509 43.5172 455.699 43.6772 454.984C43.8479 454.259 44.1039 453.651 44.4453 453.16C44.7972 452.669 45.2399 452.296 45.7733 452.04C46.3066 451.773 46.9359 451.64 47.6613 451.64C49.1119 451.64 50.1786 452.147 50.8612 453.16C51.5439 454.173 51.8853 455.592 51.8853 457.416C51.8853 459.24 51.5439 460.659 50.8612 461.672C50.1786 462.685 49.1119 463.192 47.6613 463.192ZM47.6613 461.512C48.4293 461.512 48.9679 461.24 49.2773 460.696C49.5973 460.141 49.7573 459.379 49.7573 458.408V456.424C49.7573 455.453 49.5973 454.696 49.2773 454.152C48.9679 453.597 48.4293 453.32 47.6613 453.32C46.8933 453.32 46.3493 453.597 46.0293 454.152C45.7199 454.696 45.5653 455.453 45.5653 456.424V458.408C45.5653 459.379 45.7199 460.141 46.0293 460.696C46.3493 461.24 46.8933 461.512 47.6613 461.512ZM47.6613 458.36C47.2879 458.36 47.0266 458.285 46.8773 458.136C46.7386 457.987 46.6693 457.805 46.6693 457.592V457.24C46.6693 457.027 46.7386 456.845 46.8773 456.696C47.0266 456.547 47.2879 456.472 47.6613 456.472C48.0346 456.472 48.2906 456.547 48.4293 456.696C48.5786 456.845 48.6533 457.027 48.6533 457.24V457.592C48.6533 457.805 48.5786 457.987 48.4293 458.136C48.2906 458.285 48.0346 458.36 47.6613 458.36ZM60.615 463H52.743V461.048L56.327 457.992C56.9243 457.48 57.367 457.016 57.655 456.6C57.943 456.173 58.087 455.72 58.087 455.24V455.08C58.087 454.547 57.9377 454.141 57.639 453.864C57.3403 453.587 56.9243 453.448 56.391 453.448C55.8043 453.448 55.3563 453.608 55.047 453.928C54.7377 454.248 54.5137 454.643 54.375 455.112L52.551 454.424C52.6683 454.061 52.8337 453.715 53.047 453.384C53.271 453.043 53.543 452.744 53.863 452.488C54.1937 452.232 54.583 452.029 55.031 451.88C55.479 451.72 55.991 451.64 56.567 451.64C57.1643 451.64 57.6923 451.725 58.151 451.896C58.6203 452.056 59.015 452.285 59.335 452.584C59.655 452.872 59.895 453.219 60.055 453.624C60.2257 454.029 60.311 454.472 60.311 454.952C60.311 455.411 60.2363 455.832 60.087 456.216C59.9483 456.6 59.751 456.968 59.495 457.32C59.239 457.661 58.935 457.992 58.583 458.312C58.2417 458.632 57.8683 458.952 57.463 459.272L55.031 461.24H60.615V463ZM66.3847 463V460.84H61.2167V459.048L65.7767 451.832H68.3847V459.208H69.8888V460.84H68.3847V463H66.3847ZM62.9287 459.208H66.3847V453.88H66.2567L62.9287 459.208ZM85.8603 463L85.0763 460.168H81.7643L80.9963 463H78.8843L82.0203 451.832H84.9323L88.0843 463H85.8603ZM83.4923 453.896H83.3643L82.1323 458.456H84.7243L83.4923 453.896ZM91.198 463L88.238 454.744H90.382L91.486 458.248L92.414 461.288H92.526L93.454 458.248L94.558 454.744H96.622L93.662 463H91.198ZM101.576 463.192C100.914 463.192 100.328 463.091 99.8157 462.888C99.3037 462.685 98.8717 462.397 98.5197 462.024C98.1784 461.651 97.9171 461.203 97.7357 460.68C97.5544 460.147 97.4637 459.549 97.4637 458.888C97.4637 458.216 97.5544 457.613 97.7357 457.08C97.9277 456.547 98.1944 456.093 98.5357 455.72C98.8771 455.347 99.2877 455.059 99.7677 454.856C100.258 454.653 100.808 454.552 101.416 454.552C102.013 454.552 102.552 454.653 103.032 454.856C103.512 455.048 103.917 455.325 104.248 455.688C104.589 456.051 104.85 456.488 105.032 457C105.213 457.512 105.304 458.077 105.304 458.696V459.368H99.5117V459.576C99.5117 460.173 99.6984 460.659 100.072 461.032C100.445 461.395 100.968 461.576 101.64 461.576C102.152 461.576 102.589 461.475 102.952 461.272C103.325 461.059 103.634 460.781 103.88 460.44L105.048 461.608C104.749 462.045 104.312 462.419 103.736 462.728C103.17 463.037 102.45 463.192 101.576 463.192ZM101.432 456.056C100.856 456.056 100.392 456.237 100.04 456.6C99.6877 456.963 99.5117 457.443 99.5117 458.04V458.152H103.256V458.008C103.256 457.411 103.09 456.936 102.76 456.584C102.44 456.232 101.997 456.056 101.432 456.056ZM106.737 461.384H108.785V456.36H106.737V454.744H110.833V457H110.961C111.036 456.712 111.137 456.435 111.265 456.168C111.404 455.891 111.575 455.651 111.777 455.448C111.991 455.235 112.247 455.064 112.545 454.936C112.844 454.808 113.201 454.744 113.617 454.744H114.513V456.664H112.817C112.199 456.664 111.713 456.845 111.361 457.208C111.009 457.571 110.833 458.035 110.833 458.6V461.384H113.697V463H106.737V461.384ZM121.547 454.744H123.627L119.675 464.472C119.451 465.037 119.153 465.464 118.779 465.752C118.406 466.051 117.878 466.2 117.195 466.2H115.691V464.584H117.659L118.283 462.92L114.955 454.744H117.131L118.395 458.2L119.275 460.824H119.387L120.267 458.2L121.547 454.744ZM136.831 458.104L135.663 459.64V463H133.567V451.832H135.663V456.856H135.759L137.055 455L139.407 451.832H141.775L138.271 456.536L141.935 463H139.567L136.831 458.104ZM146.665 453.464C146.185 453.464 145.843 453.363 145.641 453.16C145.449 452.957 145.353 452.712 145.353 452.424V452.04C145.353 451.752 145.449 451.507 145.641 451.304C145.843 451.101 146.185 451 146.665 451C147.145 451 147.481 451.101 147.673 451.304C147.875 451.507 147.977 451.752 147.977 452.04V452.424C147.977 452.712 147.875 452.957 147.673 453.16C147.481 453.363 147.145 453.464 146.665 453.464ZM142.921 461.384H145.641V456.36H142.921V454.744H147.689V461.384H150.217V463H142.921V461.384ZM150.898 463V454.744H152.594V455.88H152.69C152.818 455.517 153 455.208 153.234 454.952C153.48 454.685 153.821 454.552 154.258 454.552C154.674 454.552 155.005 454.675 155.25 454.92C155.496 455.155 155.656 455.491 155.73 455.928H155.81C155.949 455.555 156.152 455.235 156.418 454.968C156.696 454.691 157.085 454.552 157.586 454.552C158.194 454.552 158.632 454.771 158.898 455.208C159.165 455.645 159.298 456.291 159.298 457.144V463H157.618V457.384C157.618 456.904 157.549 456.568 157.41 456.376C157.282 456.184 157.085 456.088 156.818 456.088C156.573 456.088 156.365 456.168 156.194 456.328C156.034 456.488 155.954 456.733 155.954 457.064V463H154.258V457.384C154.258 456.904 154.194 456.568 154.066 456.376C153.938 456.184 153.741 456.088 153.474 456.088C153.218 456.088 153.005 456.168 152.834 456.328C152.674 456.488 152.594 456.733 152.594 457.064V463H150.898Z" fill="#FFE9D2"></path>
<path d="M1260.42 463L1259.64 460.168H1256.33L1255.56 463H1253.45L1256.58 451.832H1259.49L1262.65 463H1260.42ZM1258.05 453.896H1257.93L1256.69 458.456H1259.29L1258.05 453.896ZM1263.34 461.384H1265.97V452.776H1263.34V451.16H1268.02V461.384H1270.66V463H1263.34V461.384ZM1272.3 461.384H1274.92V452.776H1272.3V451.16H1276.97V461.384H1279.61V463H1272.3V461.384ZM1290.25 461.384H1292.3V456.36H1290.25V454.744H1294.35V457H1294.48C1294.55 456.712 1294.65 456.435 1294.78 456.168C1294.92 455.891 1295.09 455.651 1295.29 455.448C1295.51 455.235 1295.76 455.064 1296.06 454.936C1296.36 454.808 1296.72 454.744 1297.13 454.744H1298.03V456.664H1296.33C1295.72 456.664 1295.23 456.845 1294.88 457.208C1294.53 457.571 1294.35 458.035 1294.35 458.6V461.384H1297.21V463H1290.25V461.384ZM1303.32 453.464C1302.84 453.464 1302.5 453.363 1302.3 453.16C1302.1 452.957 1302.01 452.712 1302.01 452.424V452.04C1302.01 451.752 1302.1 451.507 1302.3 451.304C1302.5 451.101 1302.84 451 1303.32 451C1303.8 451 1304.14 451.101 1304.33 451.304C1304.53 451.507 1304.63 451.752 1304.63 452.04V452.424C1304.63 452.712 1304.53 452.957 1304.33 453.16C1304.14 453.363 1303.8 453.464 1303.32 453.464ZM1299.58 461.384H1302.3V456.36H1299.58V454.744H1304.34V461.384H1306.87V463H1299.58V461.384ZM1316.18 463.864C1316.18 464.728 1315.81 465.363 1315.09 465.768C1314.37 466.184 1313.25 466.392 1311.73 466.392C1310.98 466.392 1310.36 466.344 1309.86 466.248C1309.36 466.163 1308.95 466.035 1308.64 465.864C1308.34 465.693 1308.13 465.485 1308 465.24C1307.87 465.005 1307.81 464.739 1307.81 464.44C1307.81 463.981 1307.94 463.629 1308.21 463.384C1308.48 463.139 1308.85 462.957 1309.33 462.84V462.712C1309.01 462.605 1308.75 462.456 1308.56 462.264C1308.38 462.072 1308.29 461.805 1308.29 461.464C1308.29 461.059 1308.42 460.755 1308.69 460.552C1308.97 460.349 1309.33 460.195 1309.78 460.088V460.008C1309.29 459.773 1308.9 459.443 1308.63 459.016C1308.35 458.589 1308.21 458.072 1308.21 457.464C1308.21 457.005 1308.29 456.6 1308.45 456.248C1308.62 455.885 1308.85 455.581 1309.15 455.336C1309.46 455.08 1309.83 454.888 1310.26 454.76C1310.68 454.621 1311.16 454.552 1311.68 454.552C1312.24 454.552 1312.74 454.627 1313.19 454.776V454.424C1313.19 454.104 1313.29 453.837 1313.49 453.624C1313.7 453.411 1314 453.304 1314.37 453.304H1315.86V454.84H1313.91V455.112C1314.31 455.357 1314.62 455.677 1314.83 456.072C1315.06 456.456 1315.17 456.92 1315.17 457.464C1315.17 457.923 1315.08 458.333 1314.91 458.696C1314.75 459.059 1314.52 459.363 1314.21 459.608C1313.91 459.853 1313.54 460.045 1313.11 460.184C1312.68 460.312 1312.2 460.376 1311.68 460.376C1311.47 460.376 1311.26 460.371 1311.06 460.36C1310.87 460.339 1310.68 460.301 1310.5 460.248C1310.35 460.301 1310.2 460.387 1310.07 460.504C1309.93 460.621 1309.86 460.776 1309.86 460.968C1309.86 461.224 1309.98 461.384 1310.23 461.448C1310.47 461.501 1310.76 461.528 1311.11 461.528H1312.98C1313.55 461.528 1314.04 461.587 1314.45 461.704C1314.85 461.811 1315.19 461.971 1315.44 462.184C1315.7 462.387 1315.88 462.632 1316 462.92C1316.12 463.208 1316.18 463.523 1316.18 463.864ZM1314.26 464.008C1314.26 463.763 1314.16 463.565 1313.95 463.416C1313.76 463.277 1313.4 463.208 1312.87 463.208H1310.02C1309.7 463.389 1309.54 463.656 1309.54 464.008C1309.54 464.296 1309.65 464.536 1309.89 464.728C1310.13 464.92 1310.55 465.016 1311.12 465.016H1312.45C1313.65 465.016 1314.26 464.68 1314.26 464.008ZM1311.68 459.032C1312.2 459.032 1312.59 458.909 1312.83 458.664C1313.08 458.408 1313.2 458.077 1313.2 457.672V457.256C1313.2 456.851 1313.08 456.525 1312.83 456.28C1312.59 456.024 1312.2 455.896 1311.68 455.896C1311.17 455.896 1310.79 456.024 1310.55 456.28C1310.3 456.525 1310.18 456.851 1310.18 457.256V457.672C1310.18 458.077 1310.3 458.408 1310.55 458.664C1310.79 458.909 1311.17 459.032 1311.68 459.032ZM1317.12 451.16H1319.16V456.2H1319.24C1319.42 455.752 1319.7 455.368 1320.08 455.048C1320.46 454.717 1320.99 454.552 1321.66 454.552C1322.47 454.552 1323.13 454.824 1323.63 455.368C1324.14 455.901 1324.4 456.669 1324.4 457.672V463H1322.35V457.96C1322.35 456.765 1321.83 456.168 1320.8 456.168C1320.58 456.168 1320.38 456.195 1320.19 456.248C1320 456.301 1319.82 456.387 1319.66 456.504C1319.51 456.611 1319.39 456.744 1319.29 456.904C1319.21 457.064 1319.16 457.256 1319.16 457.48V463H1317.12V451.16ZM1330.23 463C1329.44 463 1328.86 462.792 1328.48 462.376C1328.11 461.96 1327.92 461.421 1327.92 460.76V456.36H1325.52V454.744H1327.16C1327.49 454.744 1327.72 454.68 1327.86 454.552C1328 454.413 1328.07 454.173 1328.07 453.832V451.832H1329.97V454.744H1333.33V456.36H1329.97V461.384H1333.33V463H1330.23ZM1338.59 463.192C1337.68 463.192 1336.9 463.053 1336.24 462.776C1335.58 462.488 1335.06 462.104 1334.69 461.624L1335.89 460.536C1336.23 460.909 1336.62 461.197 1337.05 461.4C1337.5 461.603 1338.02 461.704 1338.61 461.704C1339.12 461.704 1339.53 461.619 1339.84 461.448C1340.15 461.277 1340.3 461.016 1340.3 460.664C1340.3 460.365 1340.2 460.163 1339.98 460.056C1339.78 459.949 1339.51 459.869 1339.17 459.816L1337.84 459.608C1337.5 459.555 1337.16 459.48 1336.83 459.384C1336.51 459.277 1336.22 459.133 1335.97 458.952C1335.72 458.771 1335.52 458.541 1335.37 458.264C1335.23 457.976 1335.15 457.629 1335.15 457.224C1335.15 456.36 1335.47 455.699 1336.11 455.24C1336.76 454.781 1337.65 454.552 1338.78 454.552C1339.58 454.552 1340.26 454.664 1340.81 454.888C1341.38 455.112 1341.84 455.427 1342.21 455.832L1341.13 457.016C1340.9 456.76 1340.59 456.536 1340.19 456.344C1339.81 456.141 1339.32 456.04 1338.72 456.04C1337.67 456.04 1337.15 456.365 1337.15 457.016C1337.15 457.315 1337.26 457.523 1337.47 457.64C1337.68 457.747 1337.96 457.827 1338.3 457.88L1339.61 458.088C1339.97 458.141 1340.3 458.221 1340.62 458.328C1340.95 458.424 1341.24 458.563 1341.49 458.744C1341.74 458.925 1341.95 459.155 1342.09 459.432C1342.24 459.709 1342.32 460.051 1342.32 460.456C1342.32 461.309 1341.99 461.981 1341.33 462.472C1340.68 462.952 1339.76 463.192 1338.59 463.192ZM1352.93 461.384H1354.98V456.36H1352.93V454.744H1357.03V457H1357.15C1357.23 456.712 1357.33 456.435 1357.46 456.168C1357.6 455.891 1357.77 455.651 1357.97 455.448C1358.18 455.235 1358.44 455.064 1358.74 454.936C1359.04 454.808 1359.39 454.744 1359.81 454.744H1360.71V456.664H1359.01C1358.39 456.664 1357.91 456.845 1357.55 457.208C1357.2 457.571 1357.03 458.035 1357.03 458.6V461.384H1359.89V463H1352.93V461.384ZM1365.68 463.192C1365.01 463.192 1364.43 463.091 1363.92 462.888C1363.4 462.685 1362.97 462.397 1362.62 462.024C1362.28 461.651 1362.02 461.203 1361.84 460.68C1361.65 460.147 1361.56 459.549 1361.56 458.888C1361.56 458.216 1361.65 457.613 1361.84 457.08C1362.03 456.547 1362.29 456.093 1362.64 455.72C1362.98 455.347 1363.39 455.059 1363.87 454.856C1364.36 454.653 1364.91 454.552 1365.52 454.552C1366.11 454.552 1366.65 454.653 1367.13 454.856C1367.61 455.048 1368.02 455.325 1368.35 455.688C1368.69 456.051 1368.95 456.488 1369.13 457C1369.31 457.512 1369.4 458.077 1369.4 458.696V459.368H1363.61V459.576C1363.61 460.173 1363.8 460.659 1364.17 461.032C1364.55 461.395 1365.07 461.576 1365.74 461.576C1366.25 461.576 1366.69 461.475 1367.05 461.272C1367.43 461.059 1367.73 460.781 1367.98 460.44L1369.15 461.608C1368.85 462.045 1368.41 462.419 1367.84 462.728C1367.27 463.037 1366.55 463.192 1365.68 463.192ZM1365.53 456.056C1364.96 456.056 1364.49 456.237 1364.14 456.6C1363.79 456.963 1363.61 457.443 1363.61 458.04V458.152H1367.36V458.008C1367.36 457.411 1367.19 456.936 1366.86 456.584C1366.54 456.232 1366.1 456.056 1365.53 456.056ZM1374.41 463.192C1373.5 463.192 1372.71 463.053 1372.05 462.776C1371.39 462.488 1370.87 462.104 1370.5 461.624L1371.7 460.536C1372.04 460.909 1372.43 461.197 1372.87 461.4C1373.32 461.603 1373.83 461.704 1374.42 461.704C1374.93 461.704 1375.34 461.619 1375.65 461.448C1375.96 461.277 1376.12 461.016 1376.12 460.664C1376.12 460.365 1376.01 460.163 1375.8 460.056C1375.59 459.949 1375.32 459.869 1374.98 459.816L1373.65 459.608C1373.31 459.555 1372.98 459.48 1372.65 459.384C1372.33 459.277 1372.04 459.133 1371.78 458.952C1371.54 458.771 1371.34 458.541 1371.19 458.264C1371.04 457.976 1370.97 457.629 1370.97 457.224C1370.97 456.36 1371.29 455.699 1371.93 455.24C1372.58 454.781 1373.47 454.552 1374.6 454.552C1375.4 454.552 1376.07 454.664 1376.63 454.888C1377.19 455.112 1377.66 455.427 1378.02 455.832L1376.95 457.016C1376.71 456.76 1376.4 456.536 1376.01 456.344C1375.62 456.141 1375.13 456.04 1374.53 456.04C1373.49 456.04 1372.97 456.365 1372.97 457.016C1372.97 457.315 1373.07 457.523 1373.29 457.64C1373.5 457.747 1373.78 457.827 1374.12 457.88L1375.43 458.088C1375.78 458.141 1376.12 458.221 1376.44 458.328C1376.77 458.424 1377.06 458.563 1377.3 458.744C1377.56 458.925 1377.76 459.155 1377.91 459.432C1378.06 459.709 1378.13 460.051 1378.13 460.456C1378.13 461.309 1377.8 461.981 1377.14 462.472C1376.49 462.952 1375.58 463.192 1374.41 463.192ZM1383.58 463.192C1382.92 463.192 1382.34 463.091 1381.82 462.888C1381.31 462.685 1380.88 462.397 1380.53 462.024C1380.19 461.651 1379.92 461.203 1379.74 460.68C1379.56 460.147 1379.47 459.549 1379.47 458.888C1379.47 458.216 1379.56 457.613 1379.74 457.08C1379.94 456.547 1380.2 456.093 1380.54 455.72C1380.88 455.347 1381.3 455.059 1381.78 454.856C1382.27 454.653 1382.82 454.552 1383.42 454.552C1384.02 454.552 1384.56 454.653 1385.04 454.856C1385.52 455.048 1385.92 455.325 1386.26 455.688C1386.6 456.051 1386.86 456.488 1387.04 457C1387.22 457.512 1387.31 458.077 1387.31 458.696V459.368H1381.52V459.576C1381.52 460.173 1381.71 460.659 1382.08 461.032C1382.45 461.395 1382.98 461.576 1383.65 461.576C1384.16 461.576 1384.6 461.475 1384.96 461.272C1385.33 461.059 1385.64 460.781 1385.89 460.44L1387.06 461.608C1386.76 462.045 1386.32 462.419 1385.74 462.728C1385.18 463.037 1384.46 463.192 1383.58 463.192ZM1383.44 456.056C1382.86 456.056 1382.4 456.237 1382.05 456.6C1381.7 456.963 1381.52 457.443 1381.52 458.04V458.152H1385.26V458.008C1385.26 457.411 1385.1 456.936 1384.77 456.584C1384.45 456.232 1384 456.056 1383.44 456.056ZM1388.75 461.384H1390.79V456.36H1388.75V454.744H1392.84V457H1392.97C1393.04 456.712 1393.15 456.435 1393.27 456.168C1393.41 455.891 1393.58 455.651 1393.79 455.448C1394 455.235 1394.25 455.064 1394.55 454.936C1394.85 454.808 1395.21 454.744 1395.63 454.744H1396.52V456.664H1394.83C1394.21 456.664 1393.72 456.845 1393.37 457.208C1393.02 457.571 1392.84 458.035 1392.84 458.6V461.384H1395.71V463H1388.75V461.384ZM1400.07 463L1397.11 454.744H1399.25L1400.35 458.248L1401.28 461.288H1401.39L1402.32 458.248L1403.43 454.744H1405.49L1402.53 463H1400.07ZM1410.44 463.192C1409.78 463.192 1409.2 463.091 1408.68 462.888C1408.17 462.685 1407.74 462.397 1407.39 462.024C1407.05 461.651 1406.79 461.203 1406.6 460.68C1406.42 460.147 1406.33 459.549 1406.33 458.888C1406.33 458.216 1406.42 457.613 1406.6 457.08C1406.8 456.547 1407.06 456.093 1407.4 455.72C1407.75 455.347 1408.16 455.059 1408.64 454.856C1409.13 454.653 1409.68 454.552 1410.28 454.552C1410.88 454.552 1411.42 454.653 1411.9 454.856C1412.38 455.048 1412.79 455.325 1413.12 455.688C1413.46 456.051 1413.72 456.488 1413.9 457C1414.08 457.512 1414.17 458.077 1414.17 458.696V459.368H1408.38V459.576C1408.38 460.173 1408.57 460.659 1408.94 461.032C1409.31 461.395 1409.84 461.576 1410.51 461.576C1411.02 461.576 1411.46 461.475 1411.82 461.272C1412.19 461.059 1412.5 460.781 1412.75 460.44L1413.92 461.608C1413.62 462.045 1413.18 462.419 1412.6 462.728C1412.04 463.037 1411.32 463.192 1410.44 463.192ZM1410.3 456.056C1409.72 456.056 1409.26 456.237 1408.91 456.6C1408.56 456.963 1408.38 457.443 1408.38 458.04V458.152H1412.12V458.008C1412.12 457.411 1411.96 456.936 1411.63 456.584C1411.31 456.232 1410.87 456.056 1410.3 456.056ZM1420.85 461.544H1420.74C1420.52 462.045 1420.21 462.445 1419.81 462.744C1419.43 463.043 1418.92 463.192 1418.28 463.192C1417.81 463.192 1417.38 463.107 1416.98 462.936C1416.6 462.755 1416.27 462.488 1415.99 462.136C1415.71 461.773 1415.5 461.32 1415.35 460.776C1415.2 460.232 1415.13 459.597 1415.13 458.872C1415.13 457.421 1415.41 456.339 1415.99 455.624C1416.57 454.909 1417.33 454.552 1418.28 454.552C1418.92 454.552 1419.43 454.701 1419.81 455C1420.21 455.299 1420.52 455.699 1420.74 456.2H1420.85V451.16H1422.9V463H1420.85V461.544ZM1419.14 461.56C1419.38 461.56 1419.6 461.533 1419.8 461.48C1420.01 461.416 1420.19 461.331 1420.34 461.224C1420.5 461.107 1420.62 460.963 1420.71 460.792C1420.81 460.611 1420.85 460.403 1420.85 460.168V457.576C1420.85 457.341 1420.81 457.139 1420.71 456.968C1420.62 456.787 1420.5 456.643 1420.34 456.536C1420.19 456.419 1420.01 456.333 1419.8 456.28C1419.6 456.216 1419.38 456.184 1419.14 456.184C1418.54 456.184 1418.08 456.365 1417.75 456.728C1417.43 457.091 1417.27 457.587 1417.27 458.216V459.528C1417.27 460.157 1417.43 460.653 1417.75 461.016C1418.08 461.379 1418.54 461.56 1419.14 461.56Z" fill="#FFE9D2"></path>
</svg>